<svg xmlns="http://www.w3.org/2000/svg" width="128" height="128" viewBox="0 0 128 128">
  <defs>
    <!-- Main gradient -->
    <linearGradient id="mainGradient" x1="0%" y1="0%" x2="100%" y2="100%">
      <stop offset="0%" stop-color="#3B82F6"/>
      <stop offset="30%" stop-color="#06B6D4"/>
      <stop offset="70%" stop-color="#10B981"/>
      <stop offset="100%" stop-color="#8B5CF6"/>
    </linearGradient>
    
    <!-- Face gradient -->
    <radialGradient id="faceGradient" cx="50%" cy="40%" r="60%">
      <stop offset="0%" stop-color="#FFFFFF"/>
      <stop offset="80%" stop-color="#F8FAFC"/>
      <stop offset="100%" stop-color="#E2E8F0"/>
    </radialGradient>
    
    <!-- Shadow filter -->
    <filter id="dropShadow" x="-30%" y="-30%" width="160%" height="160%">
      <feDropShadow dx="0" dy="4" stdDeviation="6" flood-color="#000000" flood-opacity="0.25"/>
    </filter>
    
    <!-- Inner shadow -->
    <filter id="innerShadow" x="-50%" y="-50%" width="200%" height="200%">
      <feOffset dx="0" dy="2"/>
      <feGaussianBlur stdDeviation="2"/>
      <feComposite operator="over"/>
    </filter>
    
    <!-- Glow effect -->
    <filter id="glow" x="-50%" y="-50%" width="200%" height="200%">
      <feGaussianBlur stdDeviation="3" result="coloredBlur"/>
      <feMerge> 
        <feMergeNode in="coloredBlur"/>
        <feMergeNode in="SourceGraphic"/>
      </feMerge>
    </filter>
  </defs>

  <!-- Outer ring with gradient -->
  <circle cx="64" cy="64" r="58" fill="url(#mainGradient)" filter="url(#dropShadow)"/>
  
  <!-- Inner shadow ring -->
  <circle cx="64" cy="64" r="54" fill="none" stroke="rgba(0,0,0,0.1)" stroke-width="2"/>
  
  <!-- Clock face -->
  <circle cx="64" cy="64" r="48" fill="url(#faceGradient)" filter="url(#innerShadow)"/>
  
  <!-- Hour markers -->
  <g stroke="#1E293B" stroke-width="3" stroke-linecap="round" opacity="0.7">
    <!-- 12 o'clock -->
    <line x1="64" y1="20" x2="64" y2="28" stroke-width="4"/>
    <!-- 3 o'clock -->
    <line x1="108" y1="64" x2="100" y2="64" stroke-width="4"/>
    <!-- 6 o'clock -->
    <line x1="64" y1="108" x2="64" y2="100" stroke-width="4"/>
    <!-- 9 o'clock -->
    <line x1="20" y1="64" x2="28" y2="64" stroke-width="4"/>
    
    <!-- Minor markers -->
    <g stroke-width="2" opacity="0.5">
      <line x1="64" y1="22" x2="64" y2="26" transform="rotate(30 64 64)"/>
      <line x1="64" y1="22" x2="64" y2="26" transform="rotate(60 64 64)"/>
      <line x1="64" y1="22" x2="64" y2="26" transform="rotate(120 64 64)"/>
      <line x1="64" y1="22" x2="64" y2="26" transform="rotate(150 64 64)"/>
      <line x1="64" y1="22" x2="64" y2="26" transform="rotate(210 64 64)"/>
      <line x1="64" y1="22" x2="64" y2="26" transform="rotate(240 64 64)"/>
      <line x1="64" y1="22" x2="64" y2="26" transform="rotate(300 64 64)"/>
      <line x1="64" y1="22" x2="64" y2="26" transform="rotate(330 64 64)"/>
    </g>
  </g>

  <!-- Clock hands -->
  <g transform="translate(64,64)" filter="url(#glow)">
    <!-- Hour hand (pointing to 2) -->
    <g transform="rotate(60)">
      <rect x="-2.5" y="-28" width="5" height="28" rx="2.5" fill="#1E293B" opacity="0.9"/>
    </g>
    
    <!-- Minute hand (pointing to 12) -->
    <g transform="rotate(0)">
      <rect x="-1.5" y="-38" width="3" height="38" rx="1.5" fill="#3B82F6"/>
    </g>
    
    <!-- Second hand (pointing to 6) -->
    <g transform="rotate(180)">
      <rect x="-0.5" y="-42" width="1" height="42" rx="0.5" fill="#EF4444"/>
      <circle r="3" fill="#EF4444"/>
    </g>
    
    <!-- Center dot -->
    <circle r="4" fill="#1E293B"/>
    <circle r="2" fill="#FFFFFF"/>
  </g>

  <!-- Top crown/winder -->
  <g transform="translate(64,8)">
    <rect x="-8" y="-4" width="16" height="8" rx="4" fill="url(#mainGradient)" filter="url(#dropShadow)"/>
    <rect x="-6" y="-2" width="12" height="4" rx="2" fill="#FFFFFF" opacity="0.3"/>
  </g>
  
  <!-- Highlight on the face -->
  <ellipse cx="52" cy="48" rx="12" ry="8" fill="rgba(255,255,255,0.4)" transform="rotate(-30 52 48)"/>
</svg>